<svg width="100" height="100" viewBox="0 0 100 100" fill="none" xmlns="http://www.w3.org/2000/svg">
<path d="M68.75 9.375V71.875H6.25V43.75C7.9076 43.75 9.49732 43.0915 10.6694 41.9194C11.8415 40.7473 12.5 39.1576 12.5 37.5C12.5 35.8424 11.8415 34.2527 10.6694 33.0806C9.49732 31.9085 7.9076 31.25 6.25 31.25V9.375H50C50 10.6182 50.4939 11.8105 51.3729 12.6896C52.252 13.5686 53.4443 14.0625 54.6875 14.0625C55.9307 14.0625 57.123 13.5686 58.0021 12.6896C58.8811 11.8105 59.375 10.6182 59.375 9.375H68.75Z" fill="#8F0A42"/>
<path d="M95.3125 59.375V90.625H75C75 89.7962 74.6708 89.0013 74.0847 88.4153C73.4987 87.8292 72.7038 87.5 71.875 87.5C71.0462 87.5 70.2513 87.8292 69.6653 88.4153C69.0792 89.0013 68.75 89.7962 68.75 90.625H29.6875V84.375C31.3451 84.375 32.9348 83.7165 34.1069 82.5444C35.279 81.3723 35.9375 79.7826 35.9375 78.125C35.9375 76.4674 35.279 74.8777 34.1069 73.7056C32.9348 72.5335 31.3451 71.875 29.6875 71.875V59.375H95.3125Z" fill="#8F0A42"/>
<path d="M95.3125 59.375H29.6875L59.8691 48.9668C60.341 49.9113 61.1179 50.6689 62.074 51.1168C63.0301 51.5647 64.1095 51.6767 65.1372 51.4346C66.1649 51.1925 67.0808 50.6106 67.7365 49.783C68.3922 48.9555 68.7493 47.9308 68.75 46.875C68.7497 46.5602 68.7183 46.2462 68.6562 45.9375L75 43.75C90.625 46.875 95.3125 59.375 95.3125 59.375Z" fill="#E5E5E5"/>
<path d="M85.9375 84.375C88.5263 84.375 90.625 82.2763 90.625 79.6875C90.625 77.0987 88.5263 75 85.9375 75C83.3487 75 81.25 77.0987 81.25 79.6875C81.25 82.2763 83.3487 84.375 85.9375 84.375Z" fill="#8F0A42"/>
<path d="M45.3125 75C47.9013 75 50 72.9013 50 70.3125C50 67.7237 47.9013 65.625 45.3125 65.625C42.7237 65.625 40.625 67.7237 40.625 70.3125C40.625 72.9013 42.7237 75 45.3125 75Z" fill="#8F0A42"/>
<path d="M23.4375 28.125C26.0263 28.125 28.125 26.0263 28.125 23.4375C28.125 20.8487 26.0263 18.75 23.4375 18.75C20.8487 18.75 18.75 20.8487 18.75 23.4375C18.75 26.0263 20.8487 28.125 23.4375 28.125Z" fill="#E5E5E5"/>
<path d="M57.8125 39.0625C60.4013 39.0625 62.5 36.9638 62.5 34.375C62.5 31.7862 60.4013 29.6875 57.8125 29.6875C55.2237 29.6875 53.125 31.7862 53.125 34.375C53.125 36.9638 55.2237 39.0625 57.8125 39.0625Z" fill="#E5E5E5"/>
<path d="M56.25 84.375C57.9759 84.375 59.375 82.9759 59.375 81.25C59.375 79.5241 57.9759 78.125 56.25 78.125C54.5241 78.125 53.125 79.5241 53.125 81.25C53.125 82.9759 54.5241 84.375 56.25 84.375Z" fill="#8F0A42"/>
<path d="M70.3125 71.875C72.0384 71.875 73.4375 70.4759 73.4375 68.75C73.4375 67.0241 72.0384 65.625 70.3125 65.625C68.5866 65.625 67.1875 67.0241 67.1875 68.75C67.1875 70.4759 68.5866 71.875 70.3125 71.875Z" fill="#8F0A42"/>
<path d="M35.9375 43.75C37.6634 43.75 39.0625 42.3509 39.0625 40.625C39.0625 38.8991 37.6634 37.5 35.9375 37.5C34.2116 37.5 32.8125 38.8991 32.8125 40.625C32.8125 42.3509 34.2116 43.75 35.9375 43.75Z" fill="#E5E5E5"/>
<path d="M17.1875 65.625C18.9134 65.625 20.3125 64.2259 20.3125 62.5C20.3125 60.7741 18.9134 59.375 17.1875 59.375C15.4616 59.375 14.0625 60.7741 14.0625 62.5C14.0625 64.2259 15.4616 65.625 17.1875 65.625Z" fill="#E5E5E5"/>
<path d="M79.6875 54.6875C80.5504 54.6875 81.25 53.9879 81.25 53.125C81.25 52.2621 80.5504 51.5625 79.6875 51.5625C78.8246 51.5625 78.125 52.2621 78.125 53.125C78.125 53.9879 78.8246 54.6875 79.6875 54.6875Z" fill="#8F0A42"/>
<path d="M20.3125 46.875C21.1754 46.875 21.875 46.1754 21.875 45.3125C21.875 44.4496 21.1754 43.75 20.3125 43.75C19.4496 43.75 18.75 44.4496 18.75 45.3125C18.75 46.1754 19.4496 46.875 20.3125 46.875Z" fill="#E5E5E5"/>
<path d="M46.875 21.875C47.7379 21.875 48.4375 21.1754 48.4375 20.3125C48.4375 19.4496 47.7379 18.75 46.875 18.75C46.0121 18.75 45.3125 19.4496 45.3125 20.3125C45.3125 21.1754 46.0121 21.875 46.875 21.875Z" fill="#E5E5E5"/>
</svg>
