<svg width="100" height="100" viewBox="0 0 100 100" fill="none" xmlns="http://www.w3.org/2000/svg">
<g clip-path="url(#clip0)">
<path d="M73.0457 47.8712C73.0457 44.1139 75.8886 41.0691 79.3964 41.0691H79.5376C83.038 41.0691 85.88 44.1016 85.8883 47.8523C85.9178 60.1235 85.8989 61.3278 85.8817 79.6557C85.871 89.9468 78.0805 98.2816 68.4749 98.2816H47.85C41.5388 98.2816 35.7201 94.6203 32.6449 88.7154L14.2562 53.3862L16.1772 51.7928C20.1554 48.1364 26.1383 48.5863 29.6001 52.7992L34.7465 59.0645L34.776 15.9636C34.7785 12.2079 37.6213 9.16476 41.1267 9.16476H41.1291C44.6369 9.16476 47.4798 12.212 47.4798 15.9694V42.0542C47.5643 38.3764 50.3735 35.4277 53.8263 35.4277H53.9757C57.4835 35.4277 60.3272 38.4733 60.3272 42.2307V44.4209C60.3272 40.6627 63.1701 37.6179 66.6795 37.6179H66.6943C70.2021 37.6179 73.0457 40.6627 73.0457 44.4209V47.8712Z" fill="#8F0A42"/>
<path d="M79.5376 39.4732H79.3964C77.4787 39.4642 75.6267 40.1693 74.2016 41.4516C73.0482 38.2566 70.1158 35.958 66.6795 35.958C64.5722 35.9728 62.5609 36.8389 61.1013 38.36C59.7607 35.6436 57.0714 33.799 53.9757 33.799H53.8263C52.1721 33.7711 50.5557 34.3006 49.239 35.3029V15.9694C49.239 11.291 45.5966 7.48352 41.166 7.48352C36.7396 7.48352 33.1169 11.2877 33.1144 15.962L33.0783 54.3738L30.9037 51.7329C28.9975 49.3604 26.1916 47.8877 23.1575 47.6652C20.1833 47.4608 17.2567 48.496 15.073 50.5253L13.1833 52.0924C12.5733 52.5973 12.3993 53.4601 12.7646 54.1628L31.1533 89.5109C34.5158 95.9699 40.914 99.9998 47.8492 99.9998H68.474C78.9884 99.9998 87.5514 90.8728 87.5629 79.6762C87.5678 74.6005 87.5719 70.8283 87.576 67.7811C87.5867 59.7426 87.59 56.7725 87.5686 47.8975C87.5588 43.2306 83.9558 39.4732 79.5376 39.4732ZM84.2144 67.7671C84.2103 70.8144 84.2053 74.5955 84.2004 79.6713C84.1905 89.0158 77.1364 96.6356 68.4748 96.6356H47.85C42.1725 96.6356 36.9178 93.2994 34.1365 87.9569L16.3742 53.8229L17.2501 53.0915C17.2715 53.0734 17.2936 53.0521 17.315 53.0332C18.823 51.613 20.8532 50.884 22.9202 51.0203C25.0308 51.1812 26.9797 52.2131 28.3006 53.8672L33.4469 60.1317C33.8976 60.6809 34.6438 60.887 35.3129 60.6481C35.9811 60.4084 36.4269 59.7754 36.4277 59.0653L36.4572 15.9645C36.4589 13.1421 38.5925 10.846 41.1677 10.846C43.7429 10.846 45.8765 13.1446 45.8765 15.9694V42.0394C45.8765 42.1026 45.8724 42.165 45.8724 42.229C45.8724 42.2561 45.8765 42.2832 45.8765 42.3103V53.4593C45.8765 54.3877 46.6293 55.1405 47.5577 55.1405C48.4862 55.1405 49.239 54.3877 49.239 53.4593V42.0837C49.239 39.3402 51.3192 37.1615 53.8263 37.1615H53.9757C56.5509 37.1615 58.696 39.4067 58.696 42.2307V52.3978C58.696 53.3271 59.4488 54.079 60.3773 54.079C61.3057 54.079 62.0585 53.3271 62.0585 52.3978V44.4209C62.0585 41.5969 64.0993 39.2992 66.6901 39.2992C69.2654 39.2992 71.3054 41.5969 71.3054 44.4209V51.9463C71.3054 52.8748 72.0581 53.6275 72.9866 53.6275C73.9151 53.6275 74.6679 52.8748 74.6679 51.9463V47.8712C74.6679 45.0473 76.8211 42.8357 79.3964 42.8357H79.5376C82.1054 42.8357 84.2004 45.0834 84.207 47.9C84.2283 56.7692 84.2242 59.7327 84.2144 67.7671Z" fill="#8F0A42"/>
<path d="M27.7735 16.6951C28.702 16.6951 29.4548 15.9423 29.4548 15.0138C29.4548 8.57863 34.6709 3.3625 41.1061 3.3625C47.5405 3.3625 52.7567 8.57863 52.7567 15.0138C52.7567 15.9423 53.5094 16.6951 54.4379 16.6951C55.3672 16.6951 56.1192 15.9423 56.1192 15.0138C56.1192 6.72171 49.3974 0 41.1061 0C32.814 0 26.0923 6.72171 26.0923 15.0138C26.0923 15.9423 26.8451 16.6951 27.7735 16.6951Z" fill="#8F0A42"/>
</g>
<defs>
<clipPath id="clip0">
<rect width="100" height="100" fill="white"/>
</clipPath>
</defs>
</svg>
