<svg width="24" height="24" viewBox="0 0 24 24" fill="none" xmlns="http://www.w3.org/2000/svg">
<g clip-path="url(#clip0)">
<path d="M1.00001 21.3752C1.00001 22.1002 1.30301 22.7632 1.69301 23.1312C2.04701 23.6172 2.87901 24.0002 3.61201 24.0002C4.04501 24.0002 4.48201 23.8922 4.88301 23.6702L16.81 17.0042C16.829 16.9932 16.838 16.9752 16.855 16.9632C17.541 16.6602 18.829 15.8532 21.656 14.2952H21.657C23.445 13.2922 23.447 10.7102 21.656 9.70522C19.006 8.35222 17.718 7.41922 16.952 7.06222C16.151 6.49422 14.122 5.47522 9.70701 3.00022C4.10201 -0.139778 3.23401 -0.679778 1.88601 0.657222C0.46601 1.24422 1.16201 5.17022 1.00001 21.3752ZM11.277 11.9772C11.176 12.0762 2.59401 21.2522 2.50001 21.3522C2.64701 6.64022 2.36501 4.52222 2.50901 2.65722C2.60201 2.75722 10.939 11.6532 11.277 11.9772ZM3.48601 22.4932C15.029 10.3722 11.82 13.7472 12.377 13.1282C12.472 13.2292 15.428 16.3652 15.239 16.1652C3.81901 22.4612 4.15101 22.5712 3.48601 22.4932ZM20.923 12.9862L16.589 15.4102L13.375 12.0002L16.589 8.59022L20.923 11.0142C21.691 11.4432 21.69 12.5572 20.923 12.9862ZM15.236 7.83822C13.987 9.15022 15.092 8.01922 12.33 10.8902L3.48401 1.50422C4.48501 1.59322 7.62701 3.62122 15.236 7.83822Z" fill="black"/>
</g>
<defs>
<clipPath id="clip0">
<rect width="24" height="24" fill="white"/>
</clipPath>
</defs>
</svg>
