<svg width="267" height="68" viewBox="0 0 267 68" fill="none" xmlns="http://www.w3.org/2000/svg">
<rect width="267" height="68" fill="black"/>
<path d="M61.08 42H63.384L57.36 25.368H54.84L48.792 42H51.096L52.44 38.28H59.736L61.08 42ZM59.112 36.504H53.064L56.088 28.056L59.112 36.504ZM68.2039 33.216V27.072H71.4199C73.9159 27.072 74.9719 28.224 74.9719 30.168C74.9719 32.04 73.9159 33.216 71.4199 33.216H68.2039ZM77.2039 30.168C77.2039 27.432 75.3559 25.272 71.4199 25.272H66.0199V42H68.2039V35.016H71.4199C75.5719 35.016 77.2039 32.712 77.2039 30.168ZM82.1023 33.216V27.072H85.3183C87.8143 27.072 88.8703 28.224 88.8703 30.168C88.8703 32.04 87.8143 33.216 85.3183 33.216H82.1023ZM91.1023 30.168C91.1023 27.432 89.2543 25.272 85.3183 25.272H79.9183V42H82.1023V35.016H85.3183C89.4703 35.016 91.1023 32.712 91.1023 30.168ZM111.087 37.44C111.087 31.248 102.063 33.936 102.063 29.616C102.063 27.816 103.479 26.88 105.279 26.928C107.319 26.952 108.375 28.224 108.519 29.352H110.919C110.655 26.808 108.567 25.056 105.375 25.056C102.063 25.056 99.8312 26.928 99.8312 29.688C99.8312 35.904 108.879 33.024 108.879 37.536C108.879 39.12 107.631 40.32 105.519 40.32C103.191 40.32 102.207 38.928 102.063 37.536H99.7352C99.7832 40.296 102.159 42.168 105.519 42.168C109.143 42.168 111.087 39.816 111.087 37.44ZM113.269 27.048H117.853V42H120.037V27.048H124.597V25.272H113.269V27.048ZM143.27 33.624C143.27 28.608 139.598 25.08 134.87 25.08C130.166 25.08 126.47 28.608 126.47 33.624C126.47 38.64 130.166 42.168 134.87 42.168C139.598 42.168 143.27 38.64 143.27 33.624ZM128.702 33.624C128.702 29.52 131.342 26.976 134.87 26.976C138.398 26.976 141.038 29.52 141.038 33.624C141.038 37.704 138.398 40.272 134.87 40.272C131.342 40.272 128.702 37.704 128.702 33.624ZM155.105 30.192C155.105 32.064 154.025 33.408 151.553 33.408H148.337V27.072H151.553C154.049 27.072 155.105 28.296 155.105 30.192ZM146.153 25.272V42H148.337V35.16H150.977L154.961 42H157.577L153.377 34.992C156.185 34.368 157.361 32.328 157.361 30.192C157.361 27.456 155.489 25.272 151.553 25.272H146.153ZM169.754 25.248H160.754V42H169.754V40.2H162.938V34.44H169.034V32.64H162.938V27.048H169.754V25.248Z" fill="white"/>
<path d="M201.078 22H186.922C184.208 22 182 24.208 182 26.9219V41.0781C182 43.792 184.208 46 186.922 46H201.078C203.792 46 206 43.792 206 41.0781V26.9219C206 24.208 203.792 22 201.078 22ZM189.39 40.4929C189.173 40.8684 188.778 41.0785 188.373 41.0786C188.174 41.0786 187.973 41.0281 187.789 40.9218C187.229 40.5988 187.037 39.8807 187.36 39.3211L187.59 38.9219H190.297L189.39 40.4929ZM187.18 37.9844C186.534 37.9844 186.008 37.4587 186.008 36.8125C186.008 36.1663 186.534 35.6406 187.18 35.6406H189.485L192.647 30.164L191.79 28.6798C191.467 28.1202 191.659 27.4021 192.219 27.079H192.219C192.778 26.7559 193.497 26.9484 193.82 27.5079L194 27.8203L194.18 27.508C194.504 26.9483 195.222 26.7559 195.781 27.079C196.052 27.2355 196.246 27.4882 196.327 27.7906C196.408 28.0929 196.367 28.4088 196.21 28.6798L192.191 35.6406H194.726L196.079 37.9844H187.18ZM200.82 37.9844H199.868L200.64 39.321C200.963 39.8806 200.771 40.5987 200.211 40.9218C200.03 41.026 199.83 41.0793 199.627 41.0793C199.525 41.0793 199.423 41.066 199.322 41.0389C199.019 40.9578 198.767 40.7639 198.61 40.4928L194.541 33.4452L195.894 31.1015L198.515 35.6406H200.82C201.466 35.6406 201.992 36.1663 201.992 36.8125C201.992 37.4587 201.466 37.9844 200.82 37.9844Z" fill="white"/>
</svg>
