<svg width="267" height="68" viewBox="0 0 267 68" fill="none" xmlns="http://www.w3.org/2000/svg">
<rect x="0.5" y="0.5" width="266" height="67" stroke="black"/>
<path d="M56.432 25.08C51.728 25.08 48.032 28.608 48.032 33.624C48.032 38.64 51.728 42.144 56.432 42.144C60.968 42.144 64.256 38.808 64.64 34.656V32.976H55.64V34.752H62.312C61.976 38.064 59.72 40.176 56.432 40.176C52.904 40.176 50.264 37.632 50.264 33.624C50.264 29.592 52.904 27.048 56.432 27.048C58.784 27.048 60.608 28.176 61.52 30.12H64.136C62.888 26.904 59.96 25.08 56.432 25.08ZM80.0077 35.4C80.0077 31.248 77.1037 28.632 73.3597 28.632C69.6397 28.632 66.7117 31.248 66.7117 35.4C66.7117 39.576 69.5437 42.216 73.2637 42.216C77.0077 42.216 80.0077 39.576 80.0077 35.4ZM68.9437 35.4C68.9437 32.088 71.0317 30.528 73.3357 30.528C75.5917 30.528 77.7757 32.088 77.7757 35.4C77.7757 38.736 75.5437 40.296 73.2637 40.296C70.9837 40.296 68.9437 38.736 68.9437 35.4ZM95.3593 35.4C95.3593 31.248 92.4553 28.632 88.7113 28.632C84.9913 28.632 82.0633 31.248 82.0633 35.4C82.0633 39.576 84.8953 42.216 88.6153 42.216C92.3593 42.216 95.3593 39.576 95.3593 35.4ZM84.2953 35.4C84.2953 32.088 86.3833 30.528 88.6873 30.528C90.9433 30.528 93.1273 32.088 93.1273 35.4C93.1273 38.736 90.8953 40.296 88.6153 40.296C86.3353 40.296 84.2953 38.736 84.2953 35.4ZM97.4148 35.376C97.4148 39.456 100.127 42.216 103.655 42.216C106.055 42.216 107.759 40.944 108.551 39.528V42.288C108.551 45.096 106.799 46.584 104.471 46.584C102.311 46.584 100.751 45.504 100.271 43.92H98.1108C98.5428 46.728 101.015 48.48 104.471 48.48C108.335 48.48 110.759 45.912 110.759 42.288V28.848H108.551V31.248C107.783 29.832 106.055 28.632 103.655 28.632C100.127 28.632 97.4148 31.272 97.4148 35.376ZM108.551 35.4C108.551 38.496 106.487 40.296 104.087 40.296C101.687 40.296 99.6468 38.472 99.6468 35.376C99.6468 32.28 101.687 30.528 104.087 30.528C106.487 30.528 108.551 32.352 108.551 35.4ZM114.45 42H116.634V24.24H114.45V42ZM125.948 30.48C128.204 30.48 130.124 31.896 130.1 34.464H121.796C122.036 31.896 123.812 30.48 125.948 30.48ZM132.092 37.944H129.74C129.26 39.36 128.012 40.368 126.044 40.368C123.812 40.368 121.94 38.904 121.772 36.24H132.284C132.332 35.784 132.356 35.4 132.356 34.92C132.356 31.32 129.86 28.632 126.044 28.632C122.204 28.632 119.54 31.248 119.54 35.4C119.54 39.576 122.3 42.216 126.044 42.216C129.308 42.216 131.42 40.344 132.092 37.944ZM143.821 33.216V27.072H147.037C149.533 27.072 150.589 28.224 150.589 30.168C150.589 32.04 149.533 33.216 147.037 33.216H143.821ZM152.821 30.168C152.821 27.432 150.973 25.272 147.037 25.272H141.637V42H143.821V35.016H147.037C151.189 35.016 152.821 32.712 152.821 30.168ZM155.536 42H157.72V24.24H155.536V42ZM160.626 35.376C160.626 39.456 163.338 42.216 166.842 42.216C169.266 42.216 170.97 40.968 171.762 39.552V42H173.97V28.848H171.762V31.248C170.994 29.88 169.314 28.632 166.866 28.632C163.338 28.632 160.626 31.272 160.626 35.376ZM171.762 35.4C171.762 38.496 169.698 40.296 167.298 40.296C164.898 40.296 162.858 38.472 162.858 35.376C162.858 32.28 164.898 30.528 167.298 30.528C169.698 30.528 171.762 32.352 171.762 35.4ZM182.653 39.504L178.525 28.848H176.101L181.405 41.856L178.812 48.192H181.069L188.989 28.848H186.733L182.653 39.504Z" fill="black"/>
<g clip-path="url(#clip0)">
<path d="M201 43.375C201 44.1 201.303 44.763 201.693 45.131C202.047 45.617 202.879 46 203.612 46C204.045 46 204.482 45.892 204.883 45.67L216.81 39.004C216.829 38.993 216.838 38.975 216.855 38.963C217.541 38.66 218.829 37.853 221.656 36.295H221.657C223.445 35.292 223.447 32.71 221.656 31.705C219.006 30.352 217.718 29.419 216.952 29.062C216.151 28.494 214.122 27.475 209.707 25C204.102 21.86 203.234 21.32 201.886 22.657C200.466 23.244 201.162 27.17 201 43.375ZM211.277 33.977C211.176 34.076 202.594 43.252 202.5 43.352C202.647 28.64 202.365 26.522 202.509 24.657C202.602 24.757 210.939 33.653 211.277 33.977ZM203.486 44.493C215.029 32.372 211.82 35.747 212.377 35.128C212.472 35.229 215.428 38.365 215.239 38.165C203.819 44.461 204.151 44.571 203.486 44.493ZM220.923 34.986L216.589 37.41L213.375 34L216.589 30.59L220.923 33.014C221.691 33.443 221.69 34.557 220.923 34.986ZM215.236 29.838C213.987 31.15 215.092 30.019 212.33 32.89L203.484 23.504C204.485 23.593 207.627 25.621 215.236 29.838Z" fill="black"/>
</g>
<defs>
<clipPath id="clip0">
<rect width="24" height="24" fill="white" transform="translate(200 22)"/>
</clipPath>
</defs>
</svg>
