<svg width="176" height="59" viewBox="0 0 176 59" fill="none" xmlns="http://www.w3.org/2000/svg">
<g filter="url(#filter0_d)">
<rect x="4" width="50" height="50" rx="10" fill="#8F0A42"/>
<path d="M21.76 28.872L17.584 16.152H13.216L19.192 33H24.328L30.304 16.152H25.96L21.76 28.872ZM32.0193 33H36.1233V26.184H41.2593V22.992H36.1233V19.44H42.9873V16.152H32.0193V33Z" fill="#E5E5E5"/>
</g>
<path d="M72.408 29.426L68.952 19.436H66.252L70.86 32H73.92L78.528 19.436H75.846L72.408 29.426ZM80.0749 26.636H87.7069V24.512H80.0749V26.636ZM90.533 32H93.053V26.69H97.067V24.692H93.053V21.47H98.291V19.436H90.533V32ZM109.708 27.014C109.708 23.864 107.458 21.866 104.578 21.866C101.698 21.866 99.4479 23.864 99.4479 27.014C99.4479 30.146 101.626 32.162 104.506 32.162C107.404 32.162 109.708 30.146 109.708 27.014ZM102.004 27.014C102.004 25.016 103.21 24.062 104.542 24.062C105.874 24.062 107.116 25.016 107.116 27.014C107.116 28.994 105.838 29.966 104.506 29.966C103.156 29.966 102.004 28.994 102.004 27.014ZM121.186 27.014C121.186 23.864 118.936 21.866 116.056 21.866C113.176 21.866 110.926 23.864 110.926 27.014C110.926 30.146 113.104 32.162 115.984 32.162C118.882 32.162 121.186 30.146 121.186 27.014ZM113.482 27.014C113.482 25.016 114.688 24.062 116.02 24.062C117.352 24.062 118.594 25.016 118.594 27.014C118.594 28.994 117.316 29.966 115.984 29.966C114.634 29.966 113.482 28.994 113.482 27.014ZM122.387 26.978C122.387 30.092 124.403 32.162 126.941 32.162C128.507 32.162 129.623 31.442 130.217 30.524V32H132.773V18.68H130.217V23.414C129.533 22.478 128.273 21.866 126.959 21.866C124.403 21.866 122.387 23.864 122.387 26.978ZM130.235 27.014C130.235 28.904 128.975 29.948 127.589 29.948C126.239 29.948 124.961 28.868 124.961 26.978C124.961 25.088 126.239 24.08 127.589 24.08C128.975 24.08 130.235 25.124 130.235 27.014ZM148.055 32H150.719L146.201 19.418H143.267L138.749 32H141.395L142.223 29.606H147.227L148.055 32ZM146.543 27.59H142.907L144.725 22.334L146.543 27.59ZM154.928 23.468V22.028H152.408V36.752H154.928V30.578C155.54 31.388 156.656 32.162 158.222 32.162C160.778 32.162 162.776 30.092 162.776 26.978C162.776 23.864 160.778 21.866 158.222 21.866C156.674 21.866 155.522 22.622 154.928 23.468ZM160.202 26.978C160.202 28.868 158.924 29.948 157.556 29.948C156.206 29.948 154.928 28.904 154.928 27.014C154.928 25.124 156.206 24.08 157.556 24.08C158.924 24.08 160.202 25.088 160.202 26.978ZM167.127 23.468V22.028H164.607V36.752H167.127V30.578C167.739 31.388 168.855 32.162 170.421 32.162C172.977 32.162 174.975 30.092 174.975 26.978C174.975 23.864 172.977 21.866 170.421 21.866C168.873 21.866 167.721 22.622 167.127 23.468ZM172.401 26.978C172.401 28.868 171.123 29.948 169.755 29.948C168.405 29.948 167.127 28.904 167.127 27.014C167.127 25.124 168.405 24.08 169.755 24.08C171.123 24.08 172.401 25.088 172.401 26.978Z" fill="black"/>
<defs>
<filter id="filter0_d" x="0" y="0" width="58" height="59" filterUnits="userSpaceOnUse" color-interpolation-filters="sRGB">
<feFlood flood-opacity="0" result="BackgroundImageFix"/>
<feColorMatrix in="SourceAlpha" type="matrix" values="0 0 0 0 0 0 0 0 0 0 0 0 0 0 0 0 0 0 127 0"/>
<feOffset dy="5"/>
<feGaussianBlur stdDeviation="2"/>
<feColorMatrix type="matrix" values="0 0 0 0 0.5625 0 0 0 0 0.0375 0 0 0 0 0.258 0 0 0 0.4 0"/>
<feBlend mode="normal" in2="BackgroundImageFix" result="effect1_dropShadow"/>
<feBlend mode="normal" in="SourceGraphic" in2="effect1_dropShadow" result="shape"/>
</filter>
</defs>
</svg>
