<svg width="100" height="100" viewBox="0 0 100 100" fill="none" xmlns="http://www.w3.org/2000/svg">
<g clip-path="url(#clip0)">
<path d="M25 0C11.2167 0 0 11.2167 0 25C0 38.7833 11.2167 50 25 50C38.7833 50 50 38.7833 50 25C50 11.2167 38.7833 0 25 0ZM39.5917 19.4125L25.0083 36.0792C24.25 36.9458 23.1667 37.4583 22.0125 37.5C21.9667 37.5 21.9208 37.5 21.875 37.5C20.7708 37.5 19.7125 37.0625 18.9292 36.2792L10.5958 27.9458C8.96667 26.3167 8.96667 23.6833 10.5958 22.0542C12.225 20.425 14.8583 20.425 16.4875 22.0542L21.6708 27.2375L33.3208 13.9208C34.8375 12.1917 37.4667 12.0125 39.2 13.5292C40.9333 15.0458 41.1083 17.6792 39.5917 19.4125Z" fill="#8F0A42"/>
<path d="M31.25 79.1666C25.5 79.1666 20.8333 83.8333 20.8333 89.5833C20.8333 95.3333 25.5 100 31.25 100C37 100 41.6666 95.3333 41.6666 89.5833C41.6666 83.8333 37 79.1666 31.25 79.1666Z" fill="#8F0A42"/>
<path d="M81.25 79.1666C75.5 79.1666 70.8333 83.8333 70.8333 89.5833C70.8333 95.3333 75.5 100 81.25 100C87 100 91.6667 95.3333 91.6667 89.5833C91.6667 83.8333 87 79.1666 81.25 79.1666Z" fill="#8F0A42"/>
<path d="M62.5 44.7916V88.5416C62.5 90.2499 61.0833 91.6666 59.375 91.6666H45.625C45.7083 90.9999 45.8333 90.2916 45.8333 89.5833C45.8333 81.5416 39.2917 74.9999 31.25 74.9999C23.2083 74.9999 16.6667 81.5416 16.6667 89.5833C16.6667 90.2916 16.7917 90.9999 16.875 91.6666H11.4583C9.75 91.6666 8.33333 90.2499 8.33333 88.5416V53.8333C13.25 56.7083 18.9583 58.3333 25 58.3333C37.2917 58.3333 48.0833 51.625 53.8333 41.6666H59.375C61.0833 41.6666 62.5 43.0833 62.5 44.7916Z" fill="#8F0A42"/>
<path d="M80.2084 56.4584H69.7917C68.0667 56.4584 66.6667 57.8584 66.6667 59.5834V88.5417C66.6667 88.6667 66.7209 88.7709 66.7375 88.8875C67.1084 81.175 73.4459 75 81.25 75C89.2917 75 95.8334 81.5417 95.8334 89.5834C95.8334 90.2959 95.7209 90.9792 95.6209 91.6667H96.875C98.6 91.6667 100 90.2667 100 88.5417V76.25C100 65.3375 91.1209 56.4584 80.2084 56.4584Z" fill="#8F0A42"/>
</g>
<defs>
<clipPath id="clip0">
<rect width="100" height="100" fill="white"/>
</clipPath>
</defs>
</svg>
