<svg width="64" height="19" viewBox="0 0 64 19" fill="none" xmlns="http://www.w3.org/2000/svg">
<path d="M5.04 18.024L8.976 18L12.264 6.072L15.408 18H19.368L24.048 1.248H20.424L17.448 14.184L14.232 1.248H10.488L7.08 14.256L4.128 1.248H0.528L5.04 18.024ZM39.0819 11.352C39.0819 7.152 36.0819 4.488 32.2419 4.488C28.4019 4.488 25.4019 7.152 25.4019 11.352C25.4019 15.528 28.3059 18.216 32.1459 18.216C36.0099 18.216 39.0819 15.528 39.0819 11.352ZM28.8099 11.352C28.8099 8.688 30.4179 7.416 32.1939 7.416C33.9699 7.416 35.6259 8.688 35.6259 11.352C35.6259 13.992 33.9219 15.288 32.1459 15.288C30.3459 15.288 28.8099 13.992 28.8099 11.352ZM44.9066 11.376C44.9066 8.808 46.1066 8.04 48.0986 8.04H48.9866V4.512C47.1386 4.512 45.7466 5.4 44.9066 6.768V4.704H41.5466V18H44.9066V11.376ZM51.2498 18H54.6098V12.336L59.1218 18H63.4898L57.5858 11.376L63.4418 4.704H59.0738L54.6098 10.344V0.24H51.2498V18Z" fill="#8F0A42"/>
</svg>
